Coordinates
version=1
nRows=11
nColumns=40
inDegrees=yes

Units are S.I. units (second, meters, Newtons, ...)
If the header above contains a line with 'inDegrees', this indicates whether rotational values are in degrees (yes) or radians (no).

endheader
time	pelvis_tilt	pelvis_list	pelvis_rotation	pelvis_tx	pelvis_ty	pelvis_tz	hip_flexion_r	hip_adduction_r	hip_rotation_r	knee_angle_r	knee_angle_r_beta	ankle_angle_r	subtalar_angle_r	mtp_angle_r	hip_flexion_l	hip_adduction_l	hip_rotation_l	knee_angle_l	knee_angle_l_beta	ankle_angle_l	subtalar_angle_l	mtp_angle_l	lumbar_extension	lumbar_bending	lumbar_rotation	arm_flex_r	arm_add_r	arm_rot_r	elbow_flex_r	pro_sup_r	wrist_flex_r	wrist_dev_r	arm_flex_l	arm_add_l	arm_rot_l	elbow_flex_l	pro_sup_l	wrist_flex_l	wrist_dev_l
      7.88333333	      1.70862026	      0.10450765	      4.27218864	     -0.18673577	      1.09955008	      0.04775580	     52.07615011	     -9.09667572	      1.04871338	     95.80041396	      1.67203265	    -18.97419583	    -36.70150973	      0.00000000	     49.25069106	     -3.84033338	      4.32602575	     49.99978539	      0.87266088	    -18.58609233	    -33.49527447	      0.00000000	    -61.00352949	      2.23468917	     -4.74985301	     85.75872022	     -3.98738247	      9.01711583	     40.28029150	      3.69142830	      0.00000000	      0.00000000	     89.22434790	    -23.97699864	     32.52011687	     58.61778741	     88.76466496	      0.00000000	      0.00000000
      7.89166667	      1.86193792	     -0.15868935	      4.29653617	     -0.18593535	      1.09963067	      0.04705917	     53.51372501	     -9.08964882	      1.19484436	     97.97361385	      1.70996214	    -18.72353582	    -36.63839877	      0.00000000	     46.86841537	     -4.16894653	      4.08093502	     47.08952378	      0.82186723	    -19.07934184	    -32.63940172	      0.00000000	    -61.07648995	      2.61846656	     -4.46428512	     85.81366144	     -4.07387062	      9.59862458	     40.24517982	      3.48127800	      0.00000000	      0.00000000	     89.24812113	    -24.24731649	     33.09817772	     58.49475972	     88.80086514	      0.00000000	      0.00000000
      7.90000000	      1.93554187	     -0.93146664	      4.33875930	     -0.18477540	      1.09902966	      0.04677028	     54.98604049	     -8.72619371	      0.83958768	    100.04862181	      1.74617786	    -18.23206147	    -36.68042651	      0.00000000	     45.15063808	     -4.88607623	      4.30009588	     45.00696872	      0.78551979	    -19.30877570	    -32.26957423	      0.00000000	    -60.97514909	      3.27868755	     -3.76864582	     85.72993097	     -4.03693719	      9.73188933	     40.26106151	      3.63376160	      0.00000000	      0.00000000	     89.11271118	    -24.47756531	     33.39230149	     58.44070690	     88.78164916	      0.00000000	      0.00000000
      7.90833333	      2.07100122	     -1.55689536	      4.49968660	     -0.18383364	      1.09899108	      0.04626601	     56.30105910	     -8.55681672	      0.61130298	    101.95990360	      1.77953602	    -16.86123437	    -36.01534084	      0.00000000	     43.05672994	     -5.49921374	      4.40864348	     42.47304385	      0.74129446	    -19.64277089	    -30.96323953	      0.00000000	    -61.01286304	      3.94804513	     -3.28156939	     85.74408364	     -4.16945053	     10.45138978	     40.29897299	      3.42564608	      0.00000000	      0.00000000	     89.17267940	    -24.90166390	     34.25194308	     58.43735566	     88.77876177	      0.00000000	      0.00000000
      7.91666667	      1.97513664	     -2.16740144	      4.79693903	     -0.18301326	      1.09840418	      0.04556256	     57.99336471	     -8.55073924	      0.27266989	    103.90214103	      1.81343446	    -15.81736086	    -35.80774776	      0.00000000	     41.37354200	     -6.00140955	      4.61072810	     40.16381011	      0.70099073	    -20.10818108	    -29.89668486	      0.00000000	    -60.78565995	      4.73351757	     -2.82416887	     85.73570522	     -4.16719187	     10.47884292	     40.20802293	      3.99488480	      0.00000000	      0.00000000	     89.09955016	    -25.09727496	     34.61946575	     58.33861293	     88.78305853	      0.00000000	      0.00000000
      7.92500000	      1.74583997	     -2.81170959	      4.89982077	     -0.18245517	      1.09785108	      0.04517762	     59.67868324	     -8.46639987	     -0.12207336	    105.48921725	      1.84113417	    -15.13706907	    -35.70164899	      0.00000000	     39.83371453	     -6.60959840	      4.76261690	     37.94636512	      0.66228901	    -20.40045254	    -29.43843474	      0.00000000	    -60.47935707	      5.37059629	     -2.31024551	     85.68272252	     -4.20446598	     10.77719181	     40.33033093	      3.94950266	      0.00000000	      0.00000000	     89.05344371	    -25.41998391	     35.05711418	     58.40860253	     88.76256920	      0.00000000	      0.00000000
      7.93333333	      1.79056271	     -3.18357629	      5.17960333	     -0.18147878	      1.09739191	      0.04432331	     61.11090102	     -8.65644827	     -0.15002959	    107.08086913	      1.86891373	    -13.36147222	    -34.57686147	      0.00000000	     38.09747994	     -6.96281187	      4.70088808	     35.98717344	      0.62809467	    -20.94324791	    -28.27730395	      0.00000000	    -60.40676325	      6.01196913	     -2.11732382	     85.66467731	     -4.45836381	     11.84482781	     40.48836512	      3.36038983	      0.00000000	      0.00000000	     89.10701316	    -25.96462202	     36.11834479	     58.57364356	     88.72910686	      0.00000000	      0.00000000
      7.94166667	      1.62252327	     -3.74268620	      5.36030078	     -0.18072016	      1.09678755	      0.04377788	     62.72188596	     -8.56394796	     -0.35594876	    108.49022203	      1.89351158	    -12.38085720	    -34.68047786	      0.00000000	     36.73806243	     -7.47802881	      4.81991852	     34.25396311	      0.59784444	    -21.27055260	    -27.87960793	      0.00000000	    -60.13546139	      6.67044776	     -1.69748608	     85.59588200	     -4.45980674	     11.93795276	     40.52965699	      3.51831751	      0.00000000	      0.00000000	     88.96525463	    -26.16463501	     36.31123477	     58.58042402	     88.68362058	      0.00000000	      0.00000000
      7.95000000	      1.47407626	     -4.07213537	      5.41766221	     -0.18014526	      1.09633023	      0.04337309	     64.29597194	     -8.61416276	     -0.31746336	    109.77803783	      1.91598821	     -9.75613725	    -32.60199101	      0.00000000	     35.44002309	     -7.98143369	      4.35477134	     32.73656272	      0.57136081	    -21.99394820	    -26.63824594	      0.00000000	    -59.93765646	      7.06278440	     -1.45451238	     85.55845923	     -4.61128231	     12.55353888	     40.67777494	      3.17767440	      0.00000000	      0.00000000	     88.99669206	    -26.56903638	     36.99530329	     58.75686521	     88.69099363	      0.00000000	      0.00000000
      7.95833333	      1.23562408	     -4.52314889	      5.52202360	     -0.17974534	      1.09585869	      0.04311033	     65.90541441	     -8.49645711	     -0.44420928	    110.82292456	      1.93422492	     -8.14626421	    -32.16302378	      0.00000000	     34.41942218	     -8.47711167	      4.21001044	     31.56040710	      0.55083302	    -22.59769888	    -26.27742297	      0.00000000	    -59.66298306	      7.55066875	     -1.15537359	     85.52006872	     -4.63777750	     12.76870723	     40.78657451	      3.18277402	      0.00000000	      0.00000000	     88.96732784	    -26.91744963	     37.43071994	     58.93824927	     88.67928174	      0.00000000	      0.00000000
      7.96666667	      1.11181765	     -4.92094589	      5.60610821	     -0.17918458	      1.09547426	      0.04270959	     67.35241977	     -8.49209287	     -0.63242224	    111.70874268	      1.94968536	     -7.34856005	    -32.33330102	      0.00000000	     33.40684176	     -8.90353782	      4.18193409	     30.71249882	      0.53603423	    -22.76562911	    -26.16617196	      0.00000000	    -59.47806848	      7.99805134	     -0.88594459	     85.40588854	     -4.61043697	     12.83211352	     40.81577223	      3.35978996	      0.00000000	      0.00000000	     88.79178939	    -27.08740731	     37.47701731	     58.99142318	     88.60277075	      0.00000000	      0.00000000
